<?xml version="1.0" encoding="UTF-8"?>
<svg xmlns="http://www.w3.org/2000/svg" xmlns:xlink="http://www.w3.org/1999/xlink" width="275px" height="183px" viewBox="0 0 275 183" version="1.1">
<defs>
<linearGradient id="linear0" gradientUnits="userSpaceOnUse" x1="660.06653" y1="6.599557" x2="658.45801" y2="108.77648" gradientTransform="matrix(1,-0.000000000000000056,-0.000000000000000056,1,-45.254833,0.353553)">
<stop offset="0" style="stop-color:rgb(76.078431%,76.078431%,76.078431%);stop-opacity:1;"/>
<stop offset="1" style="stop-color:rgb(62.352941%,62.352941%,62.352941%);stop-opacity:1;"/>
</linearGradient>
</defs>
<g id="surface1">
<path style=" stroke:none;fill-rule:nonzero;fill:rgb(93.333333%,93.333333%,93.333333%);fill-opacity:1;" d="M 5.84375 0 L 268.972656 0 C 272.199219 0 274.816406 1.414062 274.816406 3.160156 L 274.816406 179.84375 C 274.816406 181.589844 272.199219 183.003906 268.972656 183.003906 L 5.84375 183.003906 C 2.617188 183.003906 0 181.589844 0 179.84375 L 0 3.160156 C 0 1.414062 2.617188 0 5.84375 0 Z M 5.84375 0 "/>
<path style=" stroke:none;fill-rule:nonzero;fill:rgb(62.352941%,62.352941%,62.352941%);fill-opacity:1;" d="M 71.371094 56.4375 L 123.90625 48.105469 C 127.617188 47.515625 131.5 48.664062 132.589844 50.671875 L 149.863281 82.539062 C 150.949219 84.542969 148.828125 86.648438 145.117188 87.234375 L 92.585938 95.566406 C 88.875 96.15625 84.992188 95.007812 83.902344 93 L 66.625 61.132812 C 65.539062 59.125 67.664062 57.023438 71.371094 56.4375 Z M 71.371094 56.4375 "/>
<path style="fill-rule:nonzero;fill:url(#linear0);stroke-width:5.398;stroke-linecap:round;stroke-linejoin:round;stroke:rgb(100%,100%,100%);stroke-opacity:1;stroke-miterlimit:4;" d="M 551.779766 1.650987 L 650.424447 1.654474 C 652.963425 1.651513 655.022436 3.712523 655.020539 6.241534 L 655.018201 113.024316 C 655.020803 115.55201 652.963581 117.617276 650.424603 117.620237 L 551.779922 117.616751 C 549.243007 117.610077 547.186432 115.557384 547.185893 113.020056 L 547.186168 6.246908 C 547.185629 3.70958 549.242851 1.644313 551.779766 1.650987 Z M 551.779766 1.650987 " transform="matrix(0.799754,0.126663,-0.234176,0.432576,-321.358278,-40.756345)"/>
<path style="fill-rule:evenodd;fill:rgb(80%,80%,80%);fill-opacity:1;stroke-width:13.0708;stroke-linecap:round;stroke-linejoin:round;stroke:rgb(100%,100%,100%);stroke-opacity:1;stroke-miterlimit:4;" d="M 270.005578 107.379713 L 761.10569 107.359344 L 761.099887 557.367565 L 269.999775 557.387934 Z M 270.005578 107.379713 " transform="matrix(0.138081,0.0218689,-0.0404315,0.0746864,89.992432,21.419228)"/>
<path style="fill-rule:evenodd;fill:rgb(100%,100%,100%);fill-opacity:1;stroke-width:13.0708;stroke-linecap:round;stroke-linejoin:round;stroke:rgb(100%,100%,100%);stroke-opacity:1;stroke-miterlimit:4;" d="M 270.005578 107.379713 L 761.10569 107.359344 L 761.093213 317.35558 L 269.993101 317.37595 Z M 270.005578 107.379713 " transform="matrix(0.138081,0.0218689,-0.0404315,0.0746864,89.992432,21.419228)"/>
<path style="fill-rule:evenodd;fill:rgb(80%,80%,80%);fill-opacity:1;stroke-width:13.0708;stroke-linecap:round;stroke-linejoin:round;stroke:rgb(100%,100%,100%);stroke-opacity:1;stroke-miterlimit:4;" d="M 299.993642 317.325953 L 338.45508 263.856367 L 399.002814 218.66888 L 414.880032 237.24198 L 428.509311 198.574967 L 436.691941 195.603696 L 450.013435 167.382605 L 629.991521 347.375032 " transform="matrix(0.138081,0.0218689,-0.0404315,0.0746864,89.992432,21.419228)"/>
<path style="fill-rule:evenodd;fill:rgb(70.196078%,70.196078%,70.196078%);fill-opacity:1;stroke-width:13.0708;stroke-linecap:round;stroke-linejoin:round;stroke:rgb(100%,100%,100%);stroke-opacity:1;stroke-miterlimit:4;" d="M 180.013277 60.020529 C 184.089283 76.452816 187.710393 93.070602 190.848398 109.777544 C 193.220611 122.419952 195.332267 135.138653 197.169263 147.885475 L 175.10667 140.747081 L 129.002656 111.306805 L 134.302835 157.71581 L 132.680298 182.51134 L 142.759642 212.876398 L 215.927623 201.128017 L 299.989983 180.018024 L 252.196742 102.588403 L 242.479362 117.515506 L 215.374354 95.378442 Z M 180.013277 60.020529 " transform="matrix(0.138081,0.0218689,-0.0404315,0.0746864,122.933558,35.342314)"/>
<path style="fill-rule:evenodd;fill:rgb(80%,80%,80%);fill-opacity:1;stroke-width:13.0708;stroke-linecap:round;stroke-linejoin:round;stroke:rgb(100%,100%,100%);stroke-opacity:1;stroke-miterlimit:4;" d="M 419.993215 347.357289 L 501.90147 272.90236 L 520.404859 263.247936 L 544.051829 219.084853 L 569.998902 197.365769 L 750.003044 377.350568 " transform="matrix(0.138081,0.0218689,-0.0404315,0.0746864,89.992432,21.419228)"/>
<path style="fill-rule:evenodd;fill:rgb(70.196078%,70.196078%,70.196078%);fill-opacity:1;stroke-width:13.0708;stroke-linecap:round;stroke-linejoin:round;stroke:rgb(100%,100%,100%);stroke-opacity:1;stroke-miterlimit:4;" d="M 569.998902 197.365769 L 605.936852 278.266728 L 605.927354 338.521429 L 628.402702 357.986844 C 634.914059 351.529984 642.561867 346.152515 650.843431 342.263141 C 665.653194 335.259304 682.157933 332.88476 698.020297 328.606229 C 704.44623 326.881563 710.903706 324.781547 716.233546 320.762727 C 717.575507 319.742164 718.849097 318.584715 720.01631 317.35381 L 690.001664 317.355635 L 649.473951 276.815902 L 619.62551 227.91898 L 609.361952 236.729767 Z M 569.998902 197.365769 " transform="matrix(0.138081,0.0218689,-0.0404315,0.0746864,89.992432,21.419228)"/>
<path style="fill-rule:evenodd;fill:rgb(100%,100%,100%);fill-opacity:1;stroke-width:13.0708;stroke-linecap:round;stroke-linejoin:round;stroke:rgb(100%,100%,100%);stroke-opacity:1;stroke-miterlimit:4;" d="M 420.006793 557.345897 C 419.586001 547.793236 411.174962 539.743361 437.144551 526.699818 C 468.976844 510.684374 563.026517 490.834165 589.290963 466.720863 C 608.686915 448.907484 518.846944 429.030771 534.249543 407.627199 C 541.257528 397.939103 593.301687 387.668789 616.391837 377.351245 C 638.28774 367.592596 631.566202 357.583562 647.817058 347.385754 C 663.525057 337.556107 716.179269 327.630183 720.01631 317.35381 C 709.578785 327.889201 651.143763 337.781832 629.991521 347.375032 C 607.656983 357.471326 608.529339 367.310181 580.573655 376.855713 C 550.431457 387.146081 491.427521 397.414503 477.845109 407.353987 C 449.442544 428.223001 524.719994 449.95786 494.056673 467.356985 C 452.524447 490.91984 344.723505 510.664686 299.99527 527.370362 C 269.092952 538.929339 271.580172 545.104924 269.999775 557.387934 " transform="matrix(0.138081,0.0218689,-0.0404315,0.0746864,89.992432,21.419228)"/>
<path style=" stroke:none;fill-rule:nonzero;fill:rgb(46.27451%,46.27451%,46.27451%);fill-opacity:1;" d="M 62.441406 119.898438 L 68.039062 119.898438 L 75.109375 127.113281 L 75.109375 119.898438 L 79.855469 119.898438 L 79.855469 130.414062 L 74.257812 130.414062 L 67.191406 123.199219 L 67.191406 130.414062 L 62.441406 130.414062 Z M 62.441406 119.898438 "/>
<path style=" stroke:none;fill-rule:nonzero;fill:rgb(46.27451%,46.27451%,46.27451%);fill-opacity:1;" d="M 93.632812 121.671875 C 92.105469 121.671875 90.921875 121.980469 90.078125 122.589844 C 89.238281 123.199219 88.820312 124.058594 88.820312 125.167969 C 88.820312 126.269531 89.238281 127.125 90.078125 127.734375 C 90.921875 128.347656 92.105469 128.652344 93.632812 128.652344 C 95.171875 128.652344 96.359375 128.347656 97.199219 127.734375 C 98.042969 127.125 98.464844 126.269531 98.464844 125.167969 C 98.464844 124.058594 98.042969 123.199219 97.199219 122.589844 C 96.359375 121.980469 95.171875 121.671875 93.632812 121.671875 Z M 93.632812 119.707031 C 96.761719 119.707031 99.210938 120.191406 100.980469 121.160156 C 102.746094 122.125 103.632812 123.460938 103.632812 125.167969 C 103.632812 126.867188 102.746094 128.203125 100.980469 129.171875 C 99.210938 130.136719 96.761719 130.621094 93.632812 130.621094 C 90.515625 130.621094 88.070312 130.136719 86.296875 129.171875 C 84.523438 128.203125 83.640625 126.867188 83.640625 125.167969 C 83.640625 123.460938 84.523438 122.125 86.296875 121.160156 C 88.070312 120.191406 90.515625 119.707031 93.632812 119.707031 Z M 93.632812 119.707031 "/>
<path style=" stroke:none;fill-rule:nonzero;fill:rgb(46.27451%,46.27451%,46.27451%);fill-opacity:1;" d="M 116.710938 119.898438 L 121.71875 119.898438 L 121.71875 130.414062 L 116.710938 130.414062 Z M 116.710938 119.898438 "/>
<path style=" stroke:none;fill-rule:nonzero;fill:rgb(46.27451%,46.27451%,46.27451%);fill-opacity:1;" d="M 126.632812 119.898438 L 133.015625 119.898438 L 137.441406 125.523438 L 141.886719 119.898438 L 148.257812 119.898438 L 148.257812 130.414062 L 143.519531 130.414062 L 143.519531 122.722656 L 139.042969 128.394531 L 135.863281 128.394531 L 131.382812 122.722656 L 131.382812 130.414062 L 126.632812 130.414062 Z M 126.632812 119.898438 "/>
<path style=" stroke:none;fill-rule:nonzero;fill:rgb(46.27451%,46.27451%,46.27451%);fill-opacity:1;" d="M 164.964844 128.5 L 157.125 128.5 L 155.890625 130.414062 L 150.851562 130.414062 L 158.046875 119.898438 L 164.03125 119.898438 L 171.230469 130.414062 L 166.191406 130.414062 Z M 158.382812 126.546875 L 163.699219 126.546875 L 161.046875 122.363281 Z M 158.382812 126.546875 "/>
<path style=" stroke:none;fill-rule:nonzero;fill:rgb(46.27451%,46.27451%,46.27451%);fill-opacity:1;" d="M 191.273438 129.632812 C 190.03125 129.960938 188.734375 130.207031 187.386719 130.371094 C 186.039062 130.535156 184.652344 130.621094 183.21875 130.621094 C 179.980469 130.621094 177.417969 130.128906 175.527344 129.152344 C 173.636719 128.171875 172.691406 126.84375 172.691406 125.167969 C 172.691406 123.472656 173.652344 122.136719 175.582031 121.164062 C 177.507812 120.191406 180.148438 119.707031 183.5 119.707031 C 184.789062 119.707031 186.023438 119.773438 187.203125 119.90625 C 188.390625 120.035156 189.511719 120.230469 190.566406 120.488281 L 190.566406 122.664062 C 189.476562 122.332031 188.398438 122.085938 187.320312 121.921875 C 186.253906 121.757812 185.179688 121.671875 184.101562 121.671875 C 182.105469 121.671875 180.570312 121.976562 179.492188 122.578125 C 178.410156 123.183594 177.867188 124.046875 177.867188 125.167969 C 177.867188 126.28125 178.386719 127.136719 179.425781 127.746094 C 180.472656 128.351562 181.953125 128.652344 183.875 128.652344 C 184.390625 128.652344 184.867188 128.632812 185.3125 128.597656 C 185.765625 128.566406 186.167969 128.511719 186.527344 128.4375 L 186.527344 126.390625 L 183.464844 126.390625 L 183.464844 124.574219 L 191.273438 124.574219 Z M 191.273438 129.632812 "/>
<path style=" stroke:none;fill-rule:nonzero;fill:rgb(46.27451%,46.27451%,46.27451%);fill-opacity:1;" d="M 195.699219 119.898438 L 209.222656 119.898438 L 209.222656 121.945312 L 200.703125 121.945312 L 200.703125 123.902344 L 208.71875 123.902344 L 208.71875 125.953125 L 200.703125 125.953125 L 200.703125 128.363281 L 209.511719 128.363281 L 209.511719 130.414062 L 195.699219 130.414062 Z M 195.699219 119.898438 "/>
<path style=" stroke:none;fill-rule:nonzero;fill:rgb(46.27451%,46.27451%,46.27451%);fill-opacity:1;" d="M 69.28125 146.527344 L 61.441406 146.527344 L 60.203125 148.445312 L 55.167969 148.445312 L 62.363281 137.925781 L 68.347656 137.925781 L 75.542969 148.445312 L 70.507812 148.445312 Z M 62.695312 144.578125 L 68.015625 144.578125 L 65.359375 140.394531 Z M 62.695312 144.578125 "/>
<path style=" stroke:none;fill-rule:nonzero;fill:rgb(46.27451%,46.27451%,46.27451%);fill-opacity:1;" d="M 73.992188 137.925781 L 79.03125 137.925781 L 84.1875 145.6875 L 89.332031 137.925781 L 94.371094 137.925781 L 87.175781 148.445312 L 81.191406 148.445312 Z M 73.992188 137.925781 "/>
<path style=" stroke:none;fill-rule:nonzero;fill:rgb(46.27451%,46.27451%,46.27451%);fill-opacity:1;" d="M 106.9375 146.527344 L 99.097656 146.527344 L 97.859375 148.445312 L 92.824219 148.445312 L 100.019531 137.925781 L 106.003906 137.925781 L 113.203125 148.445312 L 108.164062 148.445312 Z M 100.351562 144.578125 L 105.671875 144.578125 L 103.015625 140.394531 Z M 100.351562 144.578125 "/>
<path style=" stroke:none;fill-rule:nonzero;fill:rgb(46.27451%,46.27451%,46.27451%);fill-opacity:1;" d="M 115.78125 137.925781 L 120.785156 137.925781 L 120.785156 148.445312 L 115.78125 148.445312 Z M 115.78125 137.925781 "/>
<path style=" stroke:none;fill-rule:nonzero;fill:rgb(46.27451%,46.27451%,46.27451%);fill-opacity:1;" d="M 125.703125 137.925781 L 130.710938 137.925781 L 130.710938 146.394531 L 139.519531 146.394531 L 139.519531 148.445312 L 125.703125 148.445312 Z M 125.703125 137.925781 "/>
<path style=" stroke:none;fill-rule:nonzero;fill:rgb(46.27451%,46.27451%,46.27451%);fill-opacity:1;" d="M 154.492188 146.527344 L 146.648438 146.527344 L 145.414062 148.445312 L 140.375 148.445312 L 147.574219 137.925781 L 153.554688 137.925781 L 160.753906 148.445312 L 155.714844 148.445312 Z M 147.90625 144.578125 L 153.222656 144.578125 L 150.570312 140.394531 Z M 147.90625 144.578125 "/>
<path style=" stroke:none;fill-rule:nonzero;fill:rgb(46.27451%,46.27451%,46.27451%);fill-opacity:1;" d="M 171.121094 142 C 171.90625 142 172.507812 141.90625 172.914062 141.71875 C 173.324219 141.527344 173.527344 141.25 173.527344 140.886719 C 173.527344 140.523438 173.324219 140.25 172.914062 140.0625 C 172.507812 139.871094 171.90625 139.773438 171.121094 139.773438 L 168.339844 139.773438 L 168.339844 142 Z M 171.28125 146.601562 C 172.292969 146.601562 173.050781 146.484375 173.558594 146.257812 C 174.066406 146.023438 174.324219 145.679688 174.324219 145.214844 C 174.324219 144.753906 174.066406 144.414062 173.558594 144.1875 C 173.054688 143.957031 172.296875 143.84375 171.28125 143.84375 L 168.339844 143.84375 L 168.339844 146.601562 Z M 175.945312 142.816406 C 177.019531 142.984375 177.847656 143.296875 178.4375 143.753906 C 179.03125 144.210938 179.328125 144.765625 179.328125 145.429688 C 179.328125 146.445312 178.695312 147.203125 177.425781 147.699219 C 176.160156 148.195312 174.230469 148.445312 171.648438 148.445312 L 163.332031 148.445312 L 163.332031 137.925781 L 170.851562 137.925781 C 173.550781 137.925781 175.503906 138.148438 176.71875 138.589844 C 177.925781 139.03125 178.535156 139.738281 178.535156 140.710938 C 178.535156 141.222656 178.308594 141.65625 177.867188 142.015625 C 177.429688 142.375 176.789062 142.640625 175.945312 142.816406 Z M 175.945312 142.816406 "/>
<path style=" stroke:none;fill-rule:nonzero;fill:rgb(46.27451%,46.27451%,46.27451%);fill-opacity:1;" d="M 183.660156 137.925781 L 188.664062 137.925781 L 188.664062 146.394531 L 197.472656 146.394531 L 197.472656 148.445312 L 183.660156 148.445312 Z M 183.660156 137.925781 "/>
<path style=" stroke:none;fill-rule:nonzero;fill:rgb(46.27451%,46.27451%,46.27451%);fill-opacity:1;" d="M 200.652344 137.925781 L 214.175781 137.925781 L 214.175781 139.976562 L 205.65625 139.976562 L 205.65625 141.933594 L 213.671875 141.933594 L 213.671875 143.984375 L 205.65625 143.984375 L 205.65625 146.394531 L 214.464844 146.394531 L 214.464844 148.445312 L 200.652344 148.445312 Z M 200.652344 137.925781 "/>
</g>
</svg>
